<svg width="370" height="164" viewBox="0 0 370 164" fill="none" xmlns="http://www.w3.org/2000/svg">
<g clip-path="url(#clip0_189_53)">
<path d="M72.4803 131.273C69.1172 131.022 65.769 130.662 62.5021 130.203C63.117 130.122 63.4725 129.888 63.9393 129.528C64.6651 128.971 65.2282 129.052 65.5985 129.762C66.0207 130.572 66.1616 130.545 66.1689 129.663C66.1764 129.016 66.4579 128.692 66.7912 128.944C67.7616 129.672 71.5988 130.374 71.0655 129.726C70.5543 129.106 69.747 128.881 65.0726 128.071C63.2058 127.738 60.9243 127.261 58.5316 126.695C63.9689 127.765 69.8062 128.404 75.6286 128.485L83.9624 128.593V118.032L78.9621 117.412C76.2138 117.079 71.7915 115.91 69.1468 114.83C65.9838 113.526 64.8948 113.04 64.4503 111.862C64.5837 112.096 64.7245 112.231 64.8875 112.266C70.2136 113.184 70.221 113.175 70.3321 108.282C70.3913 105.493 70.1025 103.667 69.5988 103.613C69.295 103.586 68.8284 103.514 68.2282 103.415C69.7543 103.505 72.2137 103.209 74.5027 102.606L79.5176 101.301V89.9405L74.8878 90.4174C68.258 91.1009 60.539 92.4593 54.5165 93.8805C58.7983 92.7561 63.1985 91.7396 64.1985 91.7305C64.9392 91.7217 66.0503 91.11 66.6578 90.3633C67.6505 89.1671 67.4949 89.0142 65.3097 89.0142C64.806 89.0142 64.154 89.0681 63.3688 89.158C66.9541 88.5284 69.9543 88.1145 71.3839 88.1145C75.9916 88.1145 76.5249 86.9181 72.9395 86.1446C73.4951 86.0726 73.5916 85.7489 73.5916 85.1462C73.5916 84.5076 72.2285 82.9872 70.5691 81.7729C69.5098 81.0083 68.3245 80.0099 67.3986 79.1462C68.9024 80.3787 71.0136 81.5121 73.2211 82.1868C75.9916 83.0323 100.8 82.0248 109.993 80.7924C107.793 81.1612 105.526 81.5031 103.222 81.8089C92.3256 83.2301 88.3032 84.8404 94.5406 85.2901C96.111 85.407 97.5481 85.6499 97.8888 85.8567C92.8738 86.2976 88.9478 86.7203 88.4959 86.8823C87.6884 87.17 87.5476 89.2389 87.807 97.0107L88.1402 106.771L83.2141 107.274C80.5029 107.544 76.9694 107.562 75.3546 107.292C73.1396 106.933 72.1618 107.202 71.3618 108.363C70.4284 109.73 70.5024 110.099 71.9545 111.529C74.1322 113.67 79.8436 115.1 86.2218 115.1H91.3701V123.088C91.3701 126.956 91.5627 129.285 90.7034 130.599C89.2885 132.758 85.0513 132.182 72.4803 131.273ZM103.756 120.461C96.3777 118.23 92.6517 112.914 92.5627 104.495C92.4812 97.0377 94.4591 92.8191 99.5038 89.6886C106.852 85.1281 118.312 86.9541 121.031 93.1338C121.771 94.8068 121.831 95.8415 121.26 96.9478C119.882 99.6014 117.986 99.2146 115.001 95.6705C112.423 92.6211 111.749 92.2792 108.415 92.3334C103.941 92.4142 101.259 94.3481 99.8297 98.5039C97.3703 105.646 99.6816 112.707 105.267 115.064C107.993 116.216 108.897 116.216 112.652 115.064C116.668 113.832 116.927 113.589 116.927 111.052C116.927 108.435 116.801 108.336 112.853 107.904C109.393 107.526 108.778 107.184 108.778 105.655C108.778 104.054 109.349 103.829 113.949 103.586C122.416 103.146 122.586 103.289 122.327 110.405L122.112 116.449L118.779 118.428C114.919 120.722 107.8 121.684 103.756 120.461ZM135.816 120.596C130.12 119.13 127.668 115.523 127.668 108.624C127.675 100.87 131.927 96.2101 139.002 96.2101C145.417 96.2101 150.736 101.904 149.573 107.517C149.128 109.658 148.958 109.703 141.357 109.703C134.335 109.703 133.594 109.856 133.594 111.349C133.594 113.769 136.713 116.899 139.135 116.899C140.291 116.899 142.72 115.847 144.528 114.56C147.958 112.123 149.528 112.501 149.032 115.631C148.454 119.256 141.202 121.981 135.816 120.596ZM38.0492 50.4157C46.1902 47.2763 55.7018 44.9287 65.7023 43.6874L73.7396 42.6889L73.8508 32.3445L73.9619 22L86.555 22.1889C94.2221 22.2968 101.874 22.8905 109.238 23.889C98.9556 22.6027 90.6293 22.5577 90.6293 24.3208C90.6293 25.3822 92.4738 25.805 102.111 26.9473C107.282 27.568 112.186 28.3596 116.771 29.3041C108.334 27.667 97.1259 26.1828 90.2589 25.8769L84.3327 25.625L84.1179 33.8287L83.9105 42.0412L86.7107 42.509C87.2958 42.599 87.9848 42.7249 88.6737 42.8598C88.7404 43.0847 88.8663 43.3995 89.044 43.8133C89.481 44.7938 90.807 45.8372 91.9923 46.125C93.8664 46.5747 96.9554 48.5536 99.0889 50.4157C97.9926 49.5702 96.6962 48.8237 95.4739 48.4188C88.6366 46.1789 76.9694 45.9361 65.0652 47.6182C70.7691 46.4578 73.5989 45.4144 73.347 44.5599C72.5248 41.7264 51.5313 45.4504 38.0492 50.4157ZM267.992 138.577C267.815 138.362 267.674 135.627 267.674 132.488C267.674 128.026 267.911 126.794 268.785 126.794C269.401 126.794 269.896 127.54 269.896 128.458C269.896 129.825 270.452 130.104 273.119 130.032C274.889 129.978 276.889 130.5 277.564 131.174C279.119 132.749 279.141 136.113 277.6 137.66C276.518 138.748 268.741 139.486 267.992 138.577ZM91.3701 64.0074C91.3701 64.97 96.5332 64.5201 101 63.3509C96.5778 64.7901 90.9181 65.8694 84.2216 66.4632C76.0952 67.1918 71.2432 68.3522 68.2728 70.4211C69.0357 69.6744 69.9395 68.811 70.9913 67.8123C72.5617 66.3282 72.7618 65.7616 71.9766 64.997C71.5618 64.5921 70.5322 64.6103 69.2062 64.9249C72.5321 63.9444 76.4064 63.2428 80.6288 62.883C87.607 62.2895 92.6294 61.4437 96.022 60.1934C92.6294 61.7677 91.3701 62.82 91.3701 64.0074ZM150.832 138.344C147.713 136.428 147.847 132.299 151.076 130.518C153.573 129.133 155.469 129.232 158.077 130.869C160.492 132.38 161.04 135.681 159.18 137.561C157.654 139.09 152.795 139.549 150.832 138.344ZM195.819 138.227C194.664 137.525 193.878 136.185 193.73 134.656C193.538 132.632 193.944 131.966 196.115 130.707C200.708 128.044 206.486 131.453 205.056 135.987C204.093 139.027 199.109 140.242 195.819 138.227ZM283.231 138.227C282.082 137.525 281.29 136.176 281.149 134.691C280.674 129.798 288.55 127.891 291.712 132.146C295.091 136.671 288.46 141.42 283.231 138.227ZM254.659 138.11C253.496 137.066 253.436 136.662 254.273 135.438C254.814 134.638 256.362 133.99 257.703 133.99C260.719 133.99 262.615 133.162 262.074 132.101C261.496 130.968 257.022 131.094 256.051 132.272C255.474 132.974 255.11 132.974 254.748 132.272C254.465 131.705 255.088 130.905 256.192 130.392C258.645 129.259 260.4 129.259 262.807 130.374C264.444 131.121 264.711 131.795 264.711 135.096V138.937L260.37 139.135C257.651 139.252 255.525 138.874 254.659 138.11ZM134.891 138.344C133.772 137.849 132.853 136.868 132.853 136.167C132.853 134.548 133.239 134.566 135.409 136.293C137.698 138.11 143.595 137.75 143.595 135.789C143.595 134.844 142.091 134.062 138.631 133.189C133.365 131.858 131.742 130.005 134.068 127.945C135.935 126.281 143.543 126.443 144.721 128.161C146.135 130.239 145.224 130.572 142.565 128.953C140.957 127.981 139.328 127.702 137.579 128.107C133.713 128.989 134.898 130.698 140.194 131.849C145.232 132.955 146.624 134.008 145.936 136.194C145.017 139.099 139.165 140.233 134.891 138.344ZM304.083 138.577C302.313 137.237 303.416 134.458 305.831 134.197C309.631 133.774 311.38 133.09 311.38 132.047C311.38 131.363 310.04 131.219 307.121 131.606C303.15 132.128 302.987 132.074 304.714 130.86C307.01 129.24 310.707 129.124 312.299 130.617C312.957 131.237 313.602 133.324 313.728 135.249L313.957 138.766L309.521 139.054C307.076 139.207 304.632 139 304.083 138.577ZM209.353 138.344C205.59 136.032 207.034 130.959 211.761 129.879C214.524 129.249 218.783 131.48 218.783 133.567C218.783 134.584 217.753 134.889 214.279 134.889C211.004 134.889 209.856 135.195 210.072 136.014C210.486 137.534 214.917 137.975 216.257 136.626C217.531 135.339 218.671 136.284 217.523 137.678C216.361 139.09 211.249 139.513 209.353 138.344ZM143.965 105.502C143.965 102.876 141.676 100.708 138.905 100.708C136.009 100.708 133.594 102.813 133.594 105.34C133.594 106.798 134.231 107.004 138.78 107.004C143.128 107.004 143.965 106.762 143.965 105.502ZM186.123 141.303C187.812 140.727 187.737 140.601 184.849 139.009C183.159 138.092 181.567 136.536 181.315 135.555C180.27 131.579 187.123 127.864 190.263 130.707C191.078 131.444 191.5 132.335 191.204 132.695C190.908 133.054 190.182 132.857 189.581 132.254C186.922 129.573 181.818 133.09 183.915 136.167C184.997 137.741 188.804 138.101 189.523 136.689C190.078 135.6 192.116 135.483 192.116 136.545C192.116 136.958 191.197 137.822 190.078 138.461C188.892 139.135 188.433 139.792 188.974 140.035C190.649 140.763 189.122 142.086 186.699 141.996C184.575 141.915 184.515 141.843 186.123 141.303ZM323.329 138.146C321.891 137.174 321.787 136.868 322.75 136.419C323.395 136.113 324.121 136.257 324.366 136.725C324.943 137.867 329.9 137.84 329.9 136.706C329.9 136.221 329.07 135.609 328.047 135.357L324.344 134.422C320.743 133.513 323.01 129.492 327.113 129.492C328.085 129.492 329.522 130.086 330.313 130.824C331.625 132.038 331.448 132.101 328.233 131.597C323.596 130.869 323.477 132.758 328.107 133.594C331.892 134.287 333.137 136.257 330.989 138.164C329.262 139.702 325.625 139.684 323.329 138.146ZM222.628 138.442C221.665 137.966 221.131 137.174 221.413 136.616C221.776 135.906 222.138 135.906 222.716 136.608C223.723 137.831 229.153 137.903 229.153 136.698C229.153 136.212 227.828 135.555 226.205 135.24C222.235 134.467 220.294 132.731 221.599 131.129C222.813 129.636 228.776 129.573 229.983 131.039C230.703 131.912 230.08 132.029 227.058 131.588C222.346 130.913 221.747 132.641 226.375 133.567C231.428 134.575 232.717 136.553 229.487 138.344C227.272 139.567 225.013 139.603 222.628 138.442ZM169.707 138.416C168.774 137.759 168.411 136.356 168.411 133.423C168.411 128.143 170.166 128.494 170.492 133.837C170.707 137.435 170.818 137.588 173.189 137.588C175.885 137.588 176.559 136.473 176.559 132.038C176.559 127.801 178.374 129.474 178.641 133.954C178.885 137.957 177.729 140.79 176.692 138.748C176.337 138.047 175.774 137.966 175.055 138.524C173.64 139.612 171.337 139.567 169.707 138.416ZM241.006 133.09C241.006 128.089 241.236 126.794 242.117 126.794C242.985 126.794 243.228 127.99 243.228 132.191V137.588H247.302C249.541 137.588 251.378 137.993 251.378 138.488C251.378 139 249.155 139.387 246.191 139.387H241.006V133.09ZM202.538 136.167C203.242 135.132 203.3 134.323 202.73 133.243C201.101 130.095 195.819 130.905 195.819 134.305C195.819 135.456 196.042 136.662 196.316 136.985C197.263 138.146 201.575 137.57 202.538 136.167ZM289.95 136.167C290.652 135.132 290.712 134.323 290.142 133.243C288.513 130.095 283.231 130.905 283.231 134.305C283.231 135.456 283.454 136.662 283.727 136.985C284.675 138.146 288.985 137.57 289.95 136.167ZM157.684 135.744C158.366 133.117 156.721 131.148 154.106 131.471C151.632 131.777 150.158 133.891 150.862 136.113C151.18 137.138 152.225 137.588 154.262 137.588C156.573 137.588 157.299 137.192 157.684 135.744ZM144.535 108.3C145.187 109.091 148.276 108.893 148.713 108.03C149.291 106.905 147.95 101.814 146.661 100.258C146.054 99.5114 144.943 98.9179 144.202 98.9267C143.135 98.9357 143.069 99.0977 143.891 99.7273C144.617 100.294 144.802 101.598 144.521 104.162C144.298 106.159 144.306 108.021 144.535 108.3ZM276.193 134.44C276.193 132.083 275.904 131.705 273.904 131.471C271.185 131.148 269.556 133.081 270.267 135.798C270.675 137.345 271.26 137.633 273.475 137.417C275.948 137.165 276.193 136.895 276.193 134.44ZM295.824 134.26C295.824 130.455 296.038 129.393 296.661 130.149C297.283 130.905 297.846 130.896 298.86 130.122C299.905 129.33 300.446 129.348 301.143 130.194C301.854 131.058 301.735 131.291 300.565 131.291C298.416 131.291 297.305 133.037 297.305 136.419C297.305 138.056 296.972 139.387 296.564 139.387C296.157 139.387 295.824 137.075 295.824 134.26ZM163.144 138.712C163.099 138.344 163.018 135.51 162.958 132.416C162.884 128.449 163.129 126.794 163.781 126.794C164.433 126.794 164.707 128.656 164.707 133.09C164.707 136.689 164.388 139.387 163.966 139.387C163.558 139.387 163.188 139.081 163.144 138.712ZM262.326 135.924C262.503 135.294 261.741 134.889 260.392 134.889C256.252 134.889 254.037 137.111 257.488 137.795C259.577 138.209 261.955 137.291 262.326 135.924ZM317.307 134.44C317.307 130.761 317.565 129.447 318.232 129.717C318.802 129.951 319.158 131.759 319.158 134.44C319.158 137.12 318.802 138.928 318.232 139.162C317.565 139.432 317.307 138.119 317.307 134.44ZM216.56 133.108C216.56 131.003 210.649 130.779 210.079 132.865C209.865 133.657 210.775 133.99 213.168 133.99C215.034 133.99 216.56 133.594 216.56 133.108ZM311.232 135.87C311.447 135.105 310.691 134.853 308.735 135.051C305.787 135.357 304.431 137.183 306.706 137.795C308.461 138.272 310.855 137.255 311.232 135.87ZM145.076 116.899C145.328 117.394 145.698 117.799 145.906 117.799C146.106 117.799 146.024 117.295 145.721 116.674C145.343 115.91 145.565 115.946 146.417 116.782C147.106 117.466 147.669 117.799 147.669 117.529C147.669 117.268 147.869 116.404 148.121 115.622C148.439 114.614 148.128 114.201 147.054 114.201C145.358 114.201 144.38 115.532 145.076 116.899ZM196.13 127.918C196.863 127.019 203.227 127.001 203.227 127.891C203.227 128.278 201.501 128.593 199.396 128.593C197.294 128.593 195.819 128.287 196.13 127.918ZM317.307 127.693C317.307 127.198 317.824 126.794 318.462 126.794C319.098 126.794 319.409 127.198 319.158 127.693C318.906 128.188 318.387 128.593 318.002 128.593C317.616 128.593 317.307 128.188 317.307 127.693ZM44.6125 97.7844C45.3162 98.6838 49.3461 99.7633 57.2945 101.211C61.3984 101.958 65.7096 102.849 67.1246 103.226C62.2724 102.39 52.7164 100.483 49.8867 99.7543C46.6718 98.9179 44.9903 98.3419 44.6125 97.7844ZM46.6941 123.475C45.3533 123.043 44.2346 122.647 43.4567 122.314C34.723 118.59 30.4339 113.904 30.997 109.181C30.9082 110.459 31.2044 111.808 31.8489 113.301C33.5083 117.115 39.0936 120.731 46.6941 123.475ZM142.787 32.0656C150.891 35.1779 157.373 38.875 161.373 42.9048C162.892 44.434 164.307 46.5478 165.329 48.6526C164.307 46.5478 162.892 44.434 161.373 42.9138C157.714 39.2438 150.847 35.3039 142.787 32.0656ZM145.639 75.5124C137.98 78.8585 128.579 81.6021 118.016 83.4641C120.016 83.0862 122.068 82.6635 123.964 82.2498C132.246 80.4326 139.535 78.1478 145.639 75.5124ZM12.0036 75.6922C11.9073 70.7357 13.7518 66.625 18.0631 62.3794C13.974 66.5262 11.9147 71.0058 12.0036 75.6922ZM34.6195 93.9344C36.501 95.0139 37.627 95.3377 39.1899 95.0588L37.4344 95.6075L34.6195 93.9344ZM37.4121 123.915C34.9527 122.899 32.8342 121.829 31.1452 120.713C30.1895 120.083 29.2711 119.364 28.4265 118.59C30.723 120.56 33.7082 122.332 37.4121 123.915ZM23.9448 85.569C25.9375 87.9256 28.7302 90.2194 32.3674 92.5402C32.9378 92.909 33.4489 93.2328 33.9157 93.5207L33.3971 93.2058C29.2711 90.759 26.1301 88.2226 23.9448 85.569ZM107.326 60.5534C108.86 59.4739 110.223 58.1696 111.097 56.9641C110.378 58.2505 109.104 59.456 107.326 60.5534ZM98.3629 44.5779C98.0074 44.5239 97.6518 44.4699 97.2963 44.434C93.5999 44.0382 91.3107 43.6334 90.0145 43.1387C90.6737 43.2736 91.2811 43.4085 91.7404 43.5254C92.9626 43.8313 95.5035 44.2451 97.3926 44.443C97.711 44.4789 98.0297 44.5239 98.3629 44.5779ZM146.172 68.7389C139.483 72.9487 129.809 76.5738 118.193 79.1823C129.964 76.4929 139.557 72.8857 146.172 68.7389ZM65.6133 77.1854C64.7393 76.0429 64.4207 75.2783 65.0504 74.1091C64.7095 74.9186 64.8652 75.5663 65.3985 76.7806C65.4652 76.9156 65.5318 77.0504 65.6133 77.1854ZM155.136 48.5627C156.284 50.2449 156.558 51.4143 156.558 53.3751C156.558 51.792 156.069 50.1728 155.136 48.5627ZM42.8495 93.9074C44.1828 93.4126 46.4347 92.7831 49.1164 92.1263C47.3014 92.6032 45.5162 93.1159 43.842 93.6286L42.4123 94.0694C42.5531 94.0153 42.7013 93.9613 42.8495 93.9074ZM60.191 69.2697C61.5318 68.1542 63.28 67.1467 65.3616 66.2743C63.4948 67.1107 61.5984 68.1812 60.191 69.2697ZM110.852 51.3874C110.208 50.5328 109.356 49.6961 108.349 48.9046C109.467 49.7231 110.349 50.5686 110.823 51.3513C110.83 51.3602 110.838 51.3783 110.852 51.3874ZM52.3238 104.585C56.3316 105.466 59.939 106.078 61.5539 106.087C63.3096 106.105 63.7911 106.24 63.917 107.652C63.6726 106.24 63.1614 106.096 61.5095 106.087C59.9167 106.078 56.3241 105.466 52.3238 104.585ZM24.3967 113.733C23.6485 112.419 23.2189 111.178 23.2189 110.153C23.2189 110.998 23.7004 112.402 24.3967 113.733ZM56.9463 73.5065C56.3759 74.9997 56.4426 76.4387 57.1389 77.8332C56.4203 76.4387 56.3537 74.9997 56.9463 73.5065ZM51.3239 50.4968C48.8868 51.1984 46.5161 51.9988 44.242 52.8803C46.5311 51.99 48.9089 51.1803 51.3239 50.4968ZM138.283 35.9155C140.194 36.7611 141.98 37.6606 143.632 38.5871C141.98 37.6606 140.194 36.7701 138.283 35.9155Z" fill="#F9F0F0"/>
<path d="M53.1314 128.637C38.7678 125.57 29.6117 121.18 25.3894 115.342C24.1967 113.688 23.2189 111.358 23.2189 110.152C23.2189 107.562 26.9746 102.084 30.1006 100.123L32.3156 98.7374L25.8264 94.8425C15.826 88.8518 12.1517 83.7605 12.0036 75.6919C11.8332 66.8317 19.3372 58.7271 33.7527 52.1695C46.4495 46.3857 72.4359 41.4022 73.347 44.5596C73.6656 45.657 68.9098 47.0603 59.5167 48.6253C41.7011 51.6117 23.73 61.8394 21.004 70.5555C18.2557 79.326 22.2188 86.5671 33.3971 93.2055L37.4343 95.6071L43.8419 93.6282C51.5757 91.2444 61.9391 89.0138 65.3096 89.0138C67.495 89.0138 67.6504 89.1667 66.6579 90.3629C66.0504 91.1096 64.9393 91.7213 64.1984 91.7302C62.391 91.7483 49.4201 95.0766 46.257 96.3357C43.2495 97.5321 43.9901 98.2338 49.8867 99.7539C53.3758 100.654 67.1024 103.343 69.5987 103.613C70.1024 103.667 70.3914 105.493 70.332 108.281C70.221 113.175 70.2136 113.184 64.8874 112.266C64.3614 112.167 63.9615 110.818 63.9615 109.1C63.9615 106.321 63.7837 106.105 61.5539 106.086C58.576 106.069 48.7829 103.991 42.2198 101.994L37.3009 100.492L34.6564 102.938C27.5005 109.568 30.8414 116.935 43.4568 122.314C47.1756 123.906 58.6056 126.946 65.0726 128.071C69.7469 128.88 70.5544 129.105 71.0654 129.726C71.5988 130.373 67.7615 129.672 66.7912 128.943C66.4578 128.691 66.1763 129.015 66.169 129.663C66.1615 130.545 66.0208 130.572 65.5986 129.762C65.2281 129.051 64.6652 128.97 63.9392 129.528C62.5465 130.598 62.1095 130.562 53.1314 128.637ZM97.9408 85.9014C97.7703 85.6855 96.237 85.4157 94.5406 85.2898C88.3033 84.8401 92.3257 83.2297 103.222 81.8086C130.572 78.2286 151.188 69.3324 155.477 59.2667C156.069 57.8634 156.558 55.2098 156.558 53.3748C156.558 50.5594 156.003 49.3809 153.099 46.0078C145.165 36.7697 126.72 29.8794 102.111 26.947C92.4738 25.8046 90.6293 25.3818 90.6293 24.3204C90.6293 21.406 113.304 23.4299 130.024 27.8285C143.15 31.2827 155.877 37.4084 161.373 42.9134C164.329 45.873 166.921 51.1081 166.921 54.1303C166.944 65.7073 150.602 76.4026 123.964 82.2494C118.46 83.4547 111.63 84.6781 108.778 84.9658C105.926 85.2537 102.393 85.6674 100.926 85.8924C99.4666 86.1083 98.1185 86.1174 97.9408 85.9014ZM195.967 119.417C195.353 118.671 195.079 113.993 195.079 104.189C195.079 94.3119 194.96 90.0571 196.627 88.3122C197.989 86.882 200.568 87.1518 205.404 87.4035C213.976 87.8443 216.62 88.9597 219.717 93.4123C223.005 98.1708 223.169 107.823 220.057 114.083C217.679 118.878 213.872 120.452 204.671 120.479C199.559 120.488 196.545 120.119 195.967 119.417ZM253.429 120.317C251.837 119.804 249.718 118.113 248.428 116.332C246.615 113.822 246.191 112.437 246.191 109.001C246.2 100.869 250.311 96.2098 257.451 96.2098C263.741 96.2188 268.807 101.139 268.281 106.725L268.045 109.253L260.081 109.505C251.288 109.793 250.466 110.476 253.933 114.695C256.28 117.537 258.926 117.492 263.059 114.551C266.007 112.455 266.475 112.356 267.482 113.579C268.489 114.803 268.414 115.181 266.756 117.196C264.896 119.453 260.451 121.459 257.674 121.297C256.859 121.253 254.948 120.812 253.429 120.317ZM159.892 120.785C157.306 119.912 154.336 116.836 154.336 115.037C154.336 114.083 154.477 113.301 154.647 113.301C154.817 113.301 155.425 113.085 155.988 112.815C156.558 112.554 157.936 113.364 159.054 114.614C161.395 117.259 166.151 117.771 167.67 115.55C169.018 113.579 167.596 111.942 163.395 110.629C157.454 108.767 155.788 107.742 154.758 105.304C152.684 100.357 156.477 96.2098 163.077 96.2098C169.485 96.2098 173.589 99.1513 172.403 102.893C171.759 104.935 169.803 104.638 166.929 102.057C164.04 99.4662 161.61 99.1783 160.195 101.256C158.832 103.253 160.699 104.809 166.055 106.168C176.774 108.866 176.329 119.777 165.447 120.875C163.21 121.1 160.706 121.064 159.892 120.785ZM211.731 114.209C216.56 111.978 217.249 97.9549 212.702 94.5009C211.812 93.8262 208.983 93.0707 206.411 92.8187L201.745 92.369V115.1H205.768C207.983 115.1 210.671 114.695 211.731 114.209ZM183.248 120.434C180.544 119.067 180.285 118.113 180.278 109.46C180.263 101.805 180.204 101.535 178.352 100.681C176.174 99.6731 176.285 97.964 178.611 96.6867C179.781 96.048 180.248 94.8695 180.411 92.1889C180.596 89.1216 180.907 88.519 182.441 88.258C184.634 87.8804 186.189 90.1291 186.189 93.6821C186.189 95.5532 186.551 96.2098 187.582 96.2098C189.249 96.2098 190.952 98.4497 190.285 99.7718C190.018 100.285 188.989 100.707 187.997 100.707C186.218 100.707 186.189 100.842 186.189 108.353V115.999H189.152C191.59 115.999 192.116 116.305 192.116 117.744C192.116 118.707 191.833 119.705 191.486 119.957C190.093 121.009 184.959 121.306 183.248 120.434ZM91.37 64.0071C91.37 62.7388 92.8145 61.6235 96.7481 59.8603C100.437 58.2053 102.104 55.8306 101.422 53.2218C100.926 51.3419 94.9554 46.8444 91.9922 46.1247C90.8071 45.8369 89.4811 44.7934 89.0441 43.813C88.4662 42.4817 88.481 42.1848 89.1181 42.6616C90.0959 43.3992 92.5182 43.9209 97.2962 44.4336C104.548 45.2162 112.112 50.3974 112.112 54.5891C112.112 56.8738 107.682 61.0567 103.711 62.5139C98.9704 64.259 91.37 65.1765 91.37 64.0071ZM228.969 120.425C227.857 119.633 227.673 118.068 227.673 109.28C227.673 103.658 227.872 98.4137 228.124 97.6311C228.725 95.724 231.865 95.814 232.761 97.7659C233.443 99.2412 233.554 99.2412 234.894 97.7659C236.857 95.6071 241.176 95.751 242.872 98.0269C244.769 100.572 243.369 102.003 239.229 101.742C234.643 101.454 233.598 103.451 233.598 112.572C233.598 118.536 233.391 119.669 232.169 120.461C231.302 121.028 230.91 121.306 230.524 121.288C230.147 121.279 229.776 120.992 228.969 120.425ZM68.6728 85.3797C66.9838 84.9748 63.9096 83.5985 61.8428 82.3303C56.0351 78.7592 55.0351 74.9273 58.7686 70.5827C61.5095 67.3892 70.5321 63.5752 71.9766 64.9966C72.7619 65.7612 72.5618 66.3278 70.9914 67.812C63.8502 74.5764 63.7096 74.8643 66.1244 77.8238C66.9023 78.7861 68.9024 80.5582 70.5692 81.7725C72.2284 82.9869 73.5915 84.5073 73.5915 85.1459C73.5915 86.432 73.147 86.459 68.6728 85.3797ZM345.004 89.0317C343.952 88.519 342.944 87.4934 342.137 86.2252C342.937 87.2956 343.922 88.1142 344.463 88.1142C345.158 88.1142 345.13 87.6105 344.27 86.2433C344.699 86.63 345.181 86.9628 345.722 87.2236C347.945 88.3122 348.219 88.2852 350.67 86.7469C354.337 84.4443 354.848 78.3185 351.67 74.8464C349.241 72.1928 346.834 72.2916 344.032 75.1523C342.478 76.7354 341.789 78.8673 341.87 80.9361C341.678 79.0202 342.299 77.176 343.736 75.3591C344.825 73.9737 345.463 72.5344 345.152 72.1568C344.997 71.9678 344.611 72.1298 344.123 72.5435C345.545 71.0324 346.344 70.9334 348.499 71.2843C352.063 71.86 353.997 73.776 355.093 77.8056C357.049 85.0018 350.855 91.9012 345.004 89.0317ZM262.489 105.502C262.489 100.689 255.437 98.7374 253.184 102.92C252.526 104.135 252.206 105.547 252.467 106.069C252.734 106.581 255.096 107.004 257.718 107.004C261.681 107.004 262.489 106.752 262.489 105.502ZM144.535 108.299C144.306 108.021 144.298 106.159 144.521 104.161C144.802 101.598 144.617 100.294 143.891 99.727C143.069 99.0974 143.135 98.9354 144.202 98.9263C144.943 98.9175 146.054 99.5111 146.661 100.258C147.95 101.814 149.291 106.905 148.713 108.03C148.276 108.893 145.187 109.091 144.535 108.299ZM276.008 120.101C272.934 118.419 271.563 115.046 272.72 111.978C273.06 111.061 273.941 110.08 275.045 109.244C274.208 110.107 274.023 111.223 274.341 112.851C274.438 113.346 274.557 114.758 274.601 115.999C274.645 117.294 275.467 118.932 276.549 119.858C277.193 120.425 278.015 120.776 278.942 120.947C277.867 120.848 276.867 120.56 276.008 120.101ZM279.793 101.58C279.342 101.904 278.896 102.335 278.386 102.911C276.186 105.385 275.875 105.52 274.637 104.512C273.557 103.64 273.63 101.751 274.689 99.9698C274.564 100.465 274.904 100.887 275.705 101.868C277.045 103.496 277.231 103.505 279.008 102.093C279.245 101.904 279.512 101.733 279.793 101.58ZM145.076 116.899C144.38 115.531 145.358 114.2 147.054 114.2C148.128 114.2 148.439 114.614 148.121 115.621C147.869 116.404 147.669 117.267 147.669 117.528C147.669 117.798 147.106 117.466 146.417 116.782C145.565 115.945 145.343 115.909 145.721 116.674C146.024 117.294 146.106 117.798 145.906 117.798C145.698 117.798 145.328 117.393 145.076 116.899ZM340.285 80.7381C340.278 80.5761 340.27 80.4144 340.27 80.2614C340.27 78.4715 340.625 77.167 341.663 75.5929C340.729 77.239 340.27 79.002 340.285 80.7381ZM276.948 108.048C278.097 107.463 279.267 107.103 280.216 107.112C279.401 107.22 278.223 107.535 277.149 107.967C277.081 107.994 277.015 108.021 276.948 108.048ZM287.141 101.859C286.691 101.247 285.786 101.04 283.867 100.887C283.571 100.86 283.297 100.851 283.038 100.833C283.385 100.833 283.734 100.842 284.096 100.878C285.845 101.031 286.704 101.256 287.141 101.859ZM281.393 107.13C282.363 107.04 283.763 106.671 284.942 106.195C286.238 105.655 286.964 105.214 287.311 104.638C286.964 105.223 286.238 105.664 284.942 106.203C283.63 106.743 282.179 107.121 281.393 107.13ZM277.156 97.5591C278.282 96.9925 279.793 96.6597 282.007 96.4438C279.949 96.6416 278.311 97.0285 277.156 97.5591Z" fill="#FFF9FD"/>
<path d="M276.549 119.858C275.467 118.932 274.645 117.295 274.601 115.999C274.555 114.758 274.438 113.346 274.341 112.851C273.844 110.287 274.586 108.992 277.149 107.967C278.697 107.346 280.444 106.959 281.038 107.103C281.63 107.247 283.385 106.842 284.942 106.204C287.179 105.268 287.711 104.63 287.534 103.091C287.349 101.508 286.726 101.104 284.097 100.879C282.016 100.699 280.223 101.121 279.009 102.093C277.229 103.505 277.046 103.496 275.703 101.868C274.312 100.168 274.312 100.123 275.763 98.5308C276.726 97.4694 278.883 96.7499 282.023 96.444C291.098 95.5625 293.6 97.6944 293.609 106.33C293.609 109.424 293.971 113.544 294.424 115.496C295.12 118.563 295.053 119.202 293.905 120.218C292.165 121.756 291.949 121.72 290.045 119.571C288.55 117.879 288.268 117.843 286.276 119.094C282.646 121.378 278.667 121.693 276.549 119.858ZM286.104 115.325C286.965 114.461 287.749 112.752 287.853 111.529C288.031 109.46 287.846 109.325 285.09 109.595C281.63 109.928 278.046 111.961 278.046 113.598C278.046 116.971 283.348 118.113 286.104 115.325ZM300.823 120.425C299.706 119.634 299.527 118.059 299.527 108.938C299.527 98.2789 299.995 96.21 302.393 96.21C302.994 96.21 304.076 96.8577 304.794 97.6493C305.995 98.9717 306.246 98.9717 307.794 97.6493C310.143 95.6525 315.194 95.7963 317.424 97.9282C319.188 99.6103 319.254 99.6103 321.039 97.946C322.165 96.8937 324.084 96.246 326.069 96.2281C328.633 96.21 329.706 96.7317 331.439 98.8366C333.544 101.4 333.603 101.715 333.603 110.503C333.603 118.617 333.455 119.634 332.121 120.497C331.07 121.181 330.209 121.181 329.158 120.497C327.877 119.661 327.677 118.608 327.67 112.59C327.654 103.622 327.195 101.724 324.87 101.014C323.388 100.564 322.602 100.968 321.255 102.867C319.758 104.98 319.528 106.267 319.528 112.419C319.528 118.617 319.336 119.661 318.047 120.497C317.009 121.172 316.128 121.181 315.114 120.515C313.847 119.688 313.624 118.446 313.447 110.908C313.209 101.427 312.535 99.934 308.971 101.022C306.513 101.769 305.454 105.493 305.454 113.4C305.454 118.545 305.224 119.688 304.025 120.461C302.313 121.577 302.453 121.577 300.823 120.425ZM342.871 120.038C341.248 119.337 339.492 118.05 338.958 117.178C336.454 113.013 340.358 110.791 343.491 114.596C345.693 117.268 350.582 117.807 352.123 115.55C353.514 113.508 351.959 111.844 347.455 110.557C340.411 108.551 337.397 105.52 338.441 101.508C339.693 96.7317 348.603 94.5281 354.019 97.6493C356.782 99.2415 358.056 102.282 356.464 103.505C354.901 104.71 354.086 104.477 351.381 102.057C348.848 99.7811 347.285 99.3584 345.145 100.357C343.981 100.896 343.463 104.279 344.529 104.333C346.752 104.441 355.426 108.003 356.597 109.289C358.315 111.178 358.478 114.857 356.959 117.484C355.886 119.355 350.818 121.432 347.537 121.361C346.596 121.334 344.5 120.74 342.871 120.038ZM341.804 85.7488C339.574 82.2945 339.81 77.9769 342.433 74.4148C343.619 72.7957 344.847 71.7791 345.152 72.157C345.463 72.5347 344.825 73.974 343.736 75.3593C341.226 78.5344 341.204 81.7909 343.67 85.3439C345.092 87.3949 345.293 88.1144 344.463 88.1144C343.849 88.1144 342.648 87.0439 341.804 85.7488Z" fill="white"/>
<path d="M346.132 84.7437V76.4155H348.137C348.602 76.4155 348.983 76.5267 349.28 76.749C349.578 76.9685 349.797 77.2708 349.94 77.6558C350.085 78.0407 350.156 78.4787 350.156 78.9692C350.156 79.4599 350.085 79.895 349.94 80.2746C349.797 80.6542 349.578 80.9524 349.284 81.1692C348.988 81.3835 348.61 81.4906 348.149 81.4906H346.526V80.5795H348.125C348.443 80.5795 348.699 80.5146 348.891 80.3844C349.086 80.2543 349.228 80.0699 349.314 79.8314C349.404 79.5902 349.449 79.3027 349.449 78.9692C349.449 78.6359 349.404 78.3444 349.314 78.095C349.226 77.8455 349.085 77.653 348.889 77.5175C348.693 77.3793 348.435 77.3102 348.115 77.3102H346.849V84.7437H346.132ZM348.926 81.0025L350.388 84.7437H349.552L348.115 81.0025H348.926Z" fill="white"/>
</g>
<defs>
<clipPath id="clip0_189_53">
<rect width="346" height="120" fill="white" transform="translate(12 22)"/>
</clipPath>
</defs>
</svg>
