<svg width="325" height="116" viewBox="0 0 325 116" fill="none" xmlns="http://www.w3.org/2000/svg">
<path d="M109.16 0H10.16C4.63719 0 0.160034 4.47715 0.160034 10V106C0.160034 111.523 4.63719 116 10.16 116H109.16C114.683 116 119.16 111.523 119.16 106V10C119.16 4.47715 114.683 0 109.16 0Z" fill="#787878"/>
<path d="M54.905 107.835C34.6933 106.299 17.2314 91.8355 11.939 72.2447C7.834 57.042 10.9326 40.7717 20.2065 28.8458C22.6386 25.7177 28.262 20.4678 31.5593 18.2498C47.7896 7.32565 70.2922 7.24252 86.6726 18.0485C96.816 24.7334 103.892 34.3538 106.99 45.6497C108.081 49.644 108.16 50.5409 108.16 59.1157C108.16 67.7342 108.085 68.5742 106.968 72.6691C105.604 77.6434 102.285 84.6694 99.6189 88.2087C89.1798 102.073 72.9406 109.199 54.905 107.835ZM67.8645 105.94C83.3974 103.245 96.9308 92.6624 103.349 78.199C108.928 65.6211 108.707 51.289 102.748 38.6937C100.003 32.9013 100.369 33.0807 96.2554 35.5131C91.2367 38.488 91.4089 38.2037 92.9626 40.9817C93.6953 42.2942 94.9357 45.2385 95.7125 47.5222C97.0897 51.5515 97.1338 51.9058 97.1427 59.1157C97.1515 66.3999 97.1206 66.6405 95.7037 70.7091C93.4614 77.1315 91.1484 80.8064 86.3504 85.575C84.0419 87.8675 81.0271 90.3962 79.6499 91.1968C66.505 98.8354 52.3316 98.8354 39.2044 91.1968C37.8272 90.3962 34.8919 87.9681 32.6849 85.8025C27.9442 81.1476 25.1766 76.7815 23.133 70.7091C21.7999 66.7499 21.7293 66.2205 21.7072 59.5532C21.6807 51.2977 22.2855 48.3403 25.2208 42.4167C26.2757 40.2905 26.9776 38.3918 26.7833 38.1905C26.5891 37.9937 24.7706 36.8518 22.7401 35.6575C18.4409 33.12 18.8425 32.945 16.1456 38.558C9.31711 52.7633 10.0013 69.3836 17.9774 83.0114C24.9162 94.8673 37.271 103.512 50.7426 105.936C55.0727 106.715 63.3931 106.719 67.8645 105.94ZM68.0323 93.8699C83.1812 90.2868 94.3486 77.0265 95.4521 61.3206C96.1804 50.9259 92.3358 41.0736 84.6069 33.5225C74.6709 23.8146 60.7845 20.6778 47.6263 25.1708C38.3525 28.3383 30.6633 35.255 26.5803 44.0923C24.1305 49.4034 23.4772 52.6408 23.5081 59.3344C23.5302 64.4574 23.6935 65.7611 24.7308 69.1648C30.3896 87.6837 49.0829 98.3497 68.0323 93.8699ZM89.2107 31.3263C88.6016 30.657 88.5265 30.3157 88.9105 29.9351C89.2946 29.5545 89.6388 29.6289 90.3142 30.2326C90.8041 30.6745 91.2058 30.832 91.2058 30.5826C91.2058 30.3332 90.9013 29.8782 90.5261 29.5676C90.0273 29.1608 89.9743 28.8808 90.3318 28.5308C90.6894 28.1852 90.9984 28.2858 91.453 28.8983C91.7973 29.362 92.2122 29.607 92.3755 29.4451C92.7463 29.082 91.2544 27.3977 90.557 27.3977C89.9743 27.3977 87.6746 29.6595 87.6746 30.2326C87.6746 30.7751 89.0562 32.2101 89.5771 32.2101C89.8198 32.2101 89.6565 31.8119 89.2107 31.3263ZM29.8511 31.4795C29.8511 31.3176 29.5024 30.7926 29.0786 30.3114C28.2356 29.3576 28.187 29.3576 30.5838 30.3157C31.343 30.6176 31.3209 30.167 30.4867 28.0539C30.1468 27.1921 30.1556 27.1877 31.1047 28.0145C32.7158 29.4189 32.5878 28.5308 30.9546 26.9602C29.136 25.2146 28.5225 25.499 29.5421 27.6208C30.3631 29.3226 30.3013 29.3664 28.24 28.627C26.1521 27.8789 25.9314 28.4914 27.6485 30.2457C29.061 31.6938 29.8511 32.1313 29.8511 31.4795ZM88.3191 27.8527C89.2548 26.8333 88.9812 25.2321 87.7452 24.4752C87.0258 24.0334 86.6947 24.1734 85.4455 25.4508C84.0242 26.9077 84.0066 26.9602 84.7967 27.8264C85.8207 28.9464 87.3127 28.9595 88.3191 27.8527ZM33.806 27.507C33.7707 26.9033 31.1974 24.169 30.9193 24.4402C30.7692 24.589 31.215 25.4158 31.9036 26.2733C33.091 27.752 33.8458 28.2377 33.806 27.507ZM34.4681 25.4683C33.656 24.2346 34.0356 24.0509 35.7923 24.8427C36.4103 25.1227 37.0371 25.2321 37.1872 25.0877C37.5447 24.729 35.6423 21.7103 35.0596 21.7103C34.8124 21.7103 34.9493 22.2309 35.373 22.8697C36.2117 24.1427 36.3529 24.1252 33.2719 23.1628C32.1552 22.8128 32.3097 23.7884 33.6471 25.5252C34.9581 27.2271 35.6025 27.1789 34.4681 25.4683ZM84.5539 24.8165C85.8693 22.9834 85.6707 22.0953 84.3288 23.7884C82.3646 26.2558 80.7755 25.3765 82.4219 22.734C82.9649 21.8634 83.1679 21.2291 82.8722 21.3297C82.5764 21.4259 81.9496 22.104 81.4818 22.839C80.7093 24.0509 80.6916 24.2521 81.3096 25.1271C82.241 26.4439 83.4681 26.3258 84.5539 24.8165ZM37.7477 21.8503C37.196 20.9666 36.6751 20.4503 36.5913 20.7041C36.5074 20.9534 36.8782 21.9072 37.4211 22.8215C37.964 23.7315 38.4893 24.2477 38.582 23.9721C38.6747 23.6921 38.2995 22.7384 37.7477 21.8503ZM80.5592 20.726C80.6299 19.081 79.7779 19.1991 77.9417 21.0847C76.4365 22.629 76.4321 22.6465 77.5842 22.3622C78.6612 22.0997 79.3586 22.524 79.5572 23.5696C79.7338 24.5059 79.8618 24.4359 80.1708 23.2415C80.3562 22.5197 80.5327 21.3866 80.5592 20.726ZM42.0691 22.2615C42.9166 21.2247 42.2589 20.3978 40.5815 20.3978C39.5442 20.3978 39.1117 20.2185 39.2397 19.851C39.3456 19.5491 39.7605 19.361 40.1578 19.431C40.5595 19.5054 40.8861 19.3566 40.8861 19.1029C40.8861 18.416 39.3059 18.556 38.6835 19.2997C37.7786 20.3803 38.4849 21.2728 40.2461 21.2728C41.3319 21.2728 41.7822 21.4478 41.6453 21.8197C41.5394 22.1215 40.9258 22.3315 40.2858 22.2834C39.0984 22.2003 38.6703 22.7953 39.6723 23.1409C40.427 23.4034 41.4423 23.0272 42.0691 22.2615ZM76.5646 21.1197C76.6484 20.6778 76.2909 19.8641 75.7656 19.3129C74.6709 18.1579 75.2801 17.366 76.4056 18.4773C77.2796 19.3435 77.8711 18.9366 77.0898 18.0004C76.3836 17.1604 75.1432 17.1429 74.4547 17.9654C74.0309 18.4729 74.1059 18.7529 74.8387 19.3785C75.3463 19.8029 75.7568 20.4066 75.7568 20.7128C75.7568 21.5397 74.5473 21.3953 74.0265 20.5072C73.6116 19.7985 73.5763 19.7985 73.563 20.4853C73.5365 22.0472 76.2732 22.6247 76.5646 21.1197ZM44.4085 19.2822C43.9715 17.9698 43.9847 17.6023 44.4615 17.3092C45.5914 16.6179 44.6292 16.5392 43.0931 17.1954C41.6586 17.8079 41.6144 17.8823 42.484 18.2191C43.0004 18.416 43.6493 19.2166 43.9229 19.9953C44.1966 20.7785 44.5409 21.2991 44.6822 21.1547C44.8278 21.0103 44.7042 20.1703 44.4085 19.2822ZM48.721 20.1222C49.2683 19.9778 49.7141 19.6804 49.7141 19.4616C49.7141 19.2472 49.2374 19.186 48.6592 19.3304C47.1893 19.6979 46.7479 18.7441 48.1427 18.2191C49.5817 17.6767 49.6214 17.156 48.1957 17.5104C46.6376 17.8954 46.386 17.0554 47.8249 16.2811C48.8843 15.7123 48.9284 15.6161 48.1427 15.603C47.644 15.5942 46.9068 15.8304 46.5096 16.1323C45.8828 16.6048 45.8563 16.9373 46.2933 18.5385C46.8185 20.446 47.0172 20.5772 48.721 20.1222ZM71.0382 18.766C70.4467 14.9773 70.151 14.798 68.4913 17.2173C67.3304 18.9104 66.9729 20.0916 67.8998 19.1729C68.7164 18.3635 69.9259 18.5516 70.2393 19.5272C70.6454 20.796 71.2589 20.2053 71.0382 18.766ZM51.2988 18.3679C50.8529 17.2217 52.4243 17.1342 53.316 18.2498L54.159 19.3041L53.8854 17.5542C53.4837 14.9248 53.3601 14.7105 52.2654 14.7192C50.4115 14.728 50.0143 15.3055 50.3453 17.5148C50.5263 18.696 50.8397 19.4266 51.0957 19.2691C51.3385 19.1204 51.4312 18.7135 51.2988 18.3679ZM67.123 17.6417C67.6615 16.1148 67.0877 15.0911 65.4545 14.6623C64.0243 14.2817 63.3976 15.1611 63.3976 17.5498C63.3976 19.116 63.4196 19.1379 65.044 19.0022C66.3947 18.8929 66.7699 18.6435 67.123 17.6417ZM55.6157 16.7885C55.3111 14.8067 55.1522 14.4261 54.777 14.798C54.4062 15.1611 55.0771 18.6479 55.5141 18.6479C55.7304 18.6479 55.7746 17.8123 55.6157 16.7885ZM60.502 17.2042C61.0802 15.5723 60.3872 14.5311 58.6128 14.3561C57.4872 14.2424 57.1297 14.4261 56.7192 15.323C56.3042 16.2198 56.3484 16.6354 56.9619 17.5629C57.9948 19.1204 59.8928 18.9279 60.502 17.2042ZM55.8099 103.849C55.7084 103.547 55.7392 102.615 55.8717 101.775C56.1277 100.174 57.3062 99.496 58.2376 100.419C58.5863 100.765 58.4495 100.896 57.7476 100.896C57.2135 100.896 56.7765 101.093 56.7765 101.333C56.7765 101.574 57.0767 101.771 57.4386 101.771C57.8006 101.771 58.1007 101.968 58.1007 102.208C58.1007 102.449 57.7035 102.646 57.2179 102.646C56.7324 102.646 56.3351 102.843 56.3351 103.083C56.3351 103.324 56.7192 103.521 57.1915 103.521C57.6638 103.521 58.1714 103.718 58.3214 103.958C58.4804 104.212 58.0478 104.396 57.293 104.396C56.5735 104.396 55.907 104.151 55.8099 103.849ZM59.4249 102.528C59.4249 100.301 59.8399 99.811 61.398 100.196C62.3117 100.423 62.4397 100.712 62.4265 102.537C62.4176 104.343 62.3559 104.483 61.9498 103.613C61.4819 102.607 60.0871 102.436 60.0871 103.381C60.0871 103.656 59.937 104.033 59.756 104.212C59.575 104.396 59.4249 103.635 59.4249 102.528ZM61.4289 101.74C61.835 101.088 61.3627 100.734 60.5196 101.058C60.1312 101.207 59.9326 101.526 60.0871 101.767C60.4446 102.34 61.0625 102.331 61.4289 101.74ZM52.2345 103.687C52.0624 103.516 51.9123 102.965 51.9035 102.462C51.8902 101.618 51.8417 101.631 51.2193 102.646C50.5616 103.718 50.5528 103.7 50.7558 101.845C50.8706 100.8 51.0648 99.846 51.1928 99.7235C51.6607 99.2597 52.3625 100.108 52.3625 101.141C52.3625 102.519 52.9673 102.506 53.6073 101.115C54.6578 98.831 55.4303 100.415 54.5695 103.083L54.2164 104.177L54.1634 103.083L54.1105 101.99L53.3292 102.996C52.901 103.547 52.4067 103.858 52.2345 103.687ZM63.3887 103.066C62.3735 101.189 64.5275 98.7697 65.9533 100.178C66.5801 100.8 66.5227 100.852 65.353 100.769C64.3422 100.699 64.0332 100.874 63.9272 101.592C63.7507 102.803 64.991 103.866 65.7282 103.136C66.1431 102.725 66.1122 102.519 65.6001 102.195C65.0749 101.867 65.1411 101.784 65.9356 101.78C66.6198 101.771 66.9288 102.029 66.9288 102.598C66.9288 104.125 64.1568 104.492 63.3887 103.066ZM67.7983 102.392C67.0347 100.402 67.4011 99.3778 68.9151 99.2641C70.1245 99.1679 70.151 99.1941 69.2461 99.5747C68.0102 100.095 67.9175 101.084 69.1358 100.769C69.6213 100.642 70.0186 100.695 70.0186 100.887C70.0186 101.075 69.5992 101.338 69.0916 101.473C68.5575 101.609 68.2927 101.92 68.4648 102.195C68.6326 102.462 69.149 102.563 69.6125 102.414C70.0892 102.265 70.46 102.357 70.46 102.615C70.46 102.873 70.279 103.083 70.0539 103.083C69.8332 103.083 69.3388 103.202 68.9592 103.346C68.4781 103.53 68.1205 103.237 67.7983 102.392ZM47.4321 102.633C46.8141 102.274 46.77 101.942 47.1496 100.568C47.3968 99.6666 47.6528 98.8704 47.7234 98.796C47.9662 98.5379 50.1555 99.251 50.1555 99.5878C50.1555 99.7803 49.7583 99.8372 49.2727 99.7103C48.1825 99.426 48.1295 99.9466 49.1624 100.725C49.8774 101.263 49.8598 101.307 48.9417 101.32C48.3943 101.329 47.9485 101.5 47.9485 101.705C47.9485 101.907 48.3943 102.287 48.9417 102.55C49.8642 102.992 49.8686 103.027 49.052 103.04C48.5665 103.048 47.8382 102.865 47.4321 102.633ZM71.3913 101.662C70.4511 99.1722 70.3982 98.7085 71.0382 98.7085C71.3869 98.7085 71.9254 99.006 72.2256 99.3647C73.0554 100.358 73.4527 100.152 73.2055 98.8616C73.0554 98.0829 73.1393 97.8029 73.4703 98.0041C74.0397 98.3497 74.6665 101.246 74.2648 101.648C74.1104 101.797 73.4703 101.443 72.8347 100.861L71.6827 99.8022L71.9872 101.224C72.3403 102.847 71.9475 103.136 71.3913 101.662ZM42.7621 101.237C41.5879 100.673 41.557 100.262 42.559 98.4197C43.2917 97.0766 43.3491 97.0548 44.638 97.6541L45.9622 98.2754L44.7484 98.1135C43.9406 98.0085 43.5345 98.1529 43.5345 98.551C43.5345 98.8791 43.8347 99.146 44.1966 99.146C44.5586 99.146 44.8587 99.3472 44.8587 99.5922C44.8587 99.8503 44.3908 99.9203 43.7552 99.7628C42.4354 99.4347 42.2368 100.27 43.5345 100.677C44.0201 100.83 44.4173 101.137 44.4173 101.364C44.4173 101.872 44.0289 101.841 42.7621 101.237ZM75.3154 100.021C74.8298 99.5397 74.4326 98.866 74.4326 98.5204C74.4326 97.7285 75.6332 96.521 76.4233 96.521C77.4827 96.521 77.5754 97.326 76.5336 97.4748C75.3286 97.6454 75.183 99.0497 76.2953 99.7453C76.8956 100.122 77.1958 100.038 77.7166 99.356C78.2993 98.5947 78.3787 98.5816 78.392 99.2379C78.4052 99.8853 77.2178 100.896 76.4498 100.896C76.3085 100.896 75.8009 100.502 75.3154 100.021ZM38.8998 99.5047C38.4143 99.2379 37.9596 98.971 37.889 98.9185C37.8184 98.8616 38.1009 98.1047 38.5202 97.2298C39.3633 95.4754 40.3608 95.2173 41.4908 96.4598C42.3604 97.4091 41.8881 99.2772 40.661 99.741C39.787 100.073 39.9724 100.1 38.8998 99.5047ZM40.8817 98.4941C41.5306 97.7198 41.1686 96.521 40.2858 96.521C39.6414 96.521 39.1205 97.4179 39.1205 98.5247C39.1205 99.3385 40.1887 99.321 40.8817 98.4941ZM78.6877 97.5623C78.2684 96.6873 78.0212 95.8779 78.1403 95.7598C78.3699 95.5367 80.1664 98.2491 80.1708 98.8179C80.1752 99.6666 79.3763 98.9885 78.6877 97.5623ZM80.3694 96.7617C80.2017 95.6417 80.184 94.6136 80.3253 94.4692C80.621 94.1805 83.702 96.3854 83.702 96.8885C83.702 97.0679 83.1591 97.2035 82.4926 97.1948C81.8305 97.186 81.2831 97.4048 81.2787 97.6891C81.2611 99.1591 80.6387 98.5204 80.3694 96.7617ZM81.9364 96.3285C81.9364 96.2235 81.7378 96.0135 81.495 95.8648C81.2522 95.7161 81.0536 95.8036 81.0536 96.0573C81.0536 96.311 81.2522 96.521 81.495 96.521C81.7378 96.521 81.9364 96.4335 81.9364 96.3285ZM34.2386 96.7048C33.7575 96.1317 33.7928 95.7686 34.4726 94.5173C34.9228 93.6949 35.4525 93.0211 35.6599 93.0211C36.1984 93.0211 36.1234 93.3886 35.2759 94.8061C34.5564 96.0179 34.5608 96.101 35.3863 96.7223C36.1101 97.2604 36.1322 97.3698 35.5319 97.3829C35.1391 97.3916 34.5564 97.0854 34.2386 96.7048ZM32.4245 94.7142C32.3185 93.9617 32.0051 93.6861 31.2856 93.7124C29.7893 93.7649 30.0894 93.1436 32.036 92.1593C34.0488 91.1399 34.4505 91.4593 33.7575 93.5199C33.0821 95.5236 32.6054 95.9523 32.4245 94.7142ZM84.8585 94.3205C83.0399 92.1768 83.3842 91.7261 86.0282 92.8024C86.7212 93.0867 86.7565 92.9861 86.3416 91.9055C85.6265 90.0374 86.4872 89.6918 87.8512 91.3018C89.0827 92.7499 89.1003 93.5724 87.8777 92.5705C87.2597 92.063 87.2111 92.133 87.476 93.1655C87.7982 94.443 87.6084 94.5611 86.3195 93.8786C85.3749 93.3799 85.1719 93.8655 85.9885 94.6748C86.2754 94.9592 86.4034 95.3048 86.2665 95.4404C86.1297 95.5717 85.4985 95.0686 84.8585 94.3205ZM29.2287 92.6493C29.0698 92.3955 29.0698 91.6868 29.2243 91.0743C29.5377 89.8274 28.9374 89.5956 28.0766 90.6237C27.7677 90.9912 27.4101 91.188 27.2821 91.0568C26.9908 90.768 29.4229 88.2087 29.9923 88.2087C30.2219 88.2087 30.2925 88.9087 30.1512 89.7881C29.8952 91.3368 29.9085 91.3543 30.756 90.5931C32.217 89.285 32.3229 90.3349 30.8751 91.7699C30.0541 92.5836 29.4053 92.9336 29.2287 92.6493ZM88.3897 90.7374C87.3612 89.4293 87.3303 89.2675 87.9836 88.55C88.3764 88.1212 88.8929 87.7712 89.1356 87.7712C89.3784 87.7712 89.246 88.13 88.8443 88.5719C88.4426 89.0137 88.2484 89.5037 88.4118 89.6656C88.5751 89.8274 89.0694 89.635 89.5153 89.2368C90.3936 88.445 90.6541 89.0181 89.8022 89.8624C89.0297 90.6281 89.7801 91.1049 90.7777 90.4881C92.1504 89.6393 92.3226 89.8712 91.2058 91.0524C90.6364 91.6562 90.0184 92.1461 89.8375 92.1461C89.6521 92.1461 89.0032 91.5118 88.3897 90.7374ZM25.2473 88.8343C24.8677 88.4537 24.5543 87.8806 24.5543 87.5525C24.5543 86.6206 25.8387 85.5838 26.9996 85.5838C29.0521 85.5838 29.3744 88.5019 27.4013 89.25C26.3419 89.6525 26.0109 89.5912 25.2473 88.8343ZM27.6397 87.9944C28.2885 87.22 27.9266 86.0213 27.0482 86.0213C26.1654 86.0213 25.2914 87.2025 25.596 87.9856C25.9226 88.83 26.9378 88.8343 27.6397 87.9944ZM90.9719 88.1912C89.9434 87.1281 89.7801 86.7169 90.1597 86.1132C90.9366 84.8882 92.8037 84.9232 93.6379 86.1832C94.3045 87.1938 94.3045 87.3556 93.6115 88.3969C92.6757 89.8187 92.53 89.8056 90.9719 88.1912ZM93.276 87.4913C93.607 86.6381 92.3005 85.5313 91.3824 85.8813C90.6232 86.17 90.5834 86.9794 91.2941 87.6837C92.0401 88.4231 92.9494 88.3356 93.276 87.4913ZM23.2345 86.1307C23.2389 85.6757 26.289 83.6588 26.5626 83.9301C26.7833 84.1445 23.9672 86.4588 23.4817 86.4588C23.3448 86.4588 23.2301 86.31 23.2345 86.1307ZM93.4702 84.9713C92.6801 84.3938 92.199 83.8163 92.3976 83.6938C92.6006 83.5713 93.457 84.0395 94.3045 84.7351C96.1583 86.2619 95.4962 86.45 93.4702 84.9713ZM21.7602 84.4157C20.5861 83.2564 22.4488 80.4652 24.0599 80.9727C25.1281 81.3095 25.7196 82.8539 25.0398 83.5276C24.6867 83.8776 24.5543 83.742 24.5543 83.0332C24.5543 81.8564 23.4684 81.3445 22.5635 82.0883C21.6101 82.8714 21.7558 83.8032 22.899 84.2582C23.8524 84.6388 23.8569 84.6563 22.9741 84.6826C22.4664 84.6957 21.9191 84.5776 21.7602 84.4157ZM94.1323 83.6063C93.2937 82.7795 93.2451 82.3376 93.8719 81.1783C94.3442 80.3033 95.6198 80.0058 95.6198 80.7714C95.6198 81.012 95.3197 81.2089 94.9577 81.2089C94.1279 81.2089 94.0882 82.6832 94.9003 83.3482C95.7699 84.0657 97.0632 83.4576 96.7984 82.4601C96.6836 82.0139 96.7763 81.6464 97.0147 81.6464C97.253 81.6464 97.381 82.1889 97.306 82.8495C97.1956 83.777 96.8999 84.0832 96.0083 84.1838C95.3638 84.2582 94.5296 84.0001 94.1323 83.6063ZM20.4625 80.7452C20.6346 80.0846 20.4492 79.7783 19.7562 79.5989C18.2422 79.2096 18.6704 78.6933 20.692 78.4746C23.2521 78.2033 23.6671 78.7415 22.131 80.3295C20.639 81.8695 20.1314 81.9964 20.4625 80.7452ZM21.9059 79.4589C21.9059 79.2183 21.7072 79.0215 21.4645 79.0215C21.2217 79.0215 21.0231 79.2183 21.0231 79.4589C21.0231 79.6996 21.2217 79.8964 21.4645 79.8964C21.7072 79.8964 21.9059 79.6996 21.9059 79.4589ZM96.7763 80.1458C96.1407 79.3189 95.6198 78.5315 95.6198 78.3958C95.6198 78.2602 96.5115 78.1465 97.6061 78.1465C98.7008 78.1465 99.5924 78.3433 99.5924 78.584C99.5924 78.8246 99.2923 79.0215 98.9303 79.0215C98.2638 79.0215 98.1005 79.4677 98.2462 80.8808C98.3565 81.9789 98.0828 81.8389 96.7763 80.1458ZM97.8268 79.2664C97.8268 79.1614 97.6282 78.9515 97.3854 78.8027C97.1427 78.654 96.944 78.7415 96.944 78.9952C96.944 79.2489 97.1427 79.4589 97.3854 79.4589C97.6282 79.4589 97.8268 79.3714 97.8268 79.2664ZM18.3747 77.6915C18.3747 77.4465 18.6969 76.7553 19.0897 76.1603C19.8622 74.9922 19.6724 74.8347 18.3438 75.539C17.7699 75.8453 17.4919 75.8453 17.4919 75.5434C17.4919 75.0272 20.5993 73.6403 20.9569 73.9991C21.0893 74.1303 20.8465 74.8303 20.4139 75.5522L19.6282 76.869L20.767 76.5846C22.4179 76.1734 22.1663 76.7728 20.3742 77.5121C18.5512 78.269 18.3747 78.2821 18.3747 77.6915ZM99.151 75.7797C97.2927 75.119 96.8866 73.7278 98.2726 72.7697C100.157 71.4616 102.197 73.111 101.367 75.2722C101.133 75.8934 100.886 76.3834 100.815 76.3615C100.749 76.344 100.003 76.0815 99.151 75.7797ZM100.917 74.4803C100.917 73.6185 99.7204 72.7522 98.9348 73.0541C98.127 73.3603 98.052 74.4891 98.82 74.7953C99.9014 75.2284 100.917 75.0753 100.917 74.4803ZM16.1897 71.8291C15.3246 70.7966 15.9778 69.0248 17.3506 68.6792C18.2599 68.4561 18.7101 68.6179 19.3457 69.3923C20.0608 70.2717 20.0873 70.5123 19.5488 71.3173C18.794 72.4547 16.9489 72.7347 16.1897 71.8291ZM19.0368 70.4904C19.0368 69.1429 16.8783 69.2742 16.6841 70.6304C16.5561 71.5141 16.7017 71.6323 17.7876 71.5054C18.6969 71.4048 19.0368 71.1248 19.0368 70.4904ZM99.7028 71.7197C98.948 71.571 98.7096 71.221 98.7096 70.2673C98.7096 69.5761 98.9083 68.8892 99.151 68.7404C99.4026 68.5873 99.5924 68.9548 99.5924 69.5892C99.5924 70.206 99.7911 70.7091 100.034 70.7091C100.277 70.7091 100.475 70.4117 100.475 70.0529C100.475 69.6942 100.656 69.3967 100.877 69.3967C101.093 69.3967 101.173 69.7904 101.045 70.2717C100.908 70.7923 101.031 71.1466 101.349 71.1466C101.641 71.1466 101.985 70.7529 102.113 70.2717C102.241 69.7904 102.501 69.3967 102.695 69.3967C102.89 69.3967 102.903 69.9392 102.726 70.5998C102.395 71.8291 101.645 72.1047 99.7028 71.7197ZM18.5821 67.6292C18.3879 67.3142 17.6817 67.2049 16.7724 67.3536C14.8699 67.6598 14.8302 67.0255 16.7194 66.4917C18.6527 65.9405 18.613 64.8555 16.662 64.8249C13.7223 64.7812 13.6428 61.8894 16.5693 61.6006C18.666 61.395 18.2599 60.0344 16.0441 59.855C14.0269 59.6888 14.3005 58.8969 16.3795 58.8969C17.1917 58.8969 17.9686 58.6519 18.0966 58.3501C18.229 58.0482 18.2952 58.7876 18.2466 59.9907C18.1584 62.1168 18.1142 62.1825 16.7194 62.3137C15.6424 62.4187 15.2848 62.6637 15.2848 63.2981C15.2848 63.9981 15.5982 64.1468 17.0505 64.1468C18.0215 64.1468 18.7763 64.2955 18.7322 64.4749C18.6836 64.6543 18.8028 65.4549 18.9926 66.2555C19.359 67.7736 19.1339 68.513 18.5821 67.6292ZM101.248 66.3036C100.338 65.8268 99.5924 65.2711 99.5924 65.0612C99.5924 64.628 103.556 63.5562 103.901 63.8974C104.029 64.0243 103.808 64.2518 103.406 64.4005C102.559 64.7243 102.453 65.9318 103.212 66.6842C103.993 67.4586 103.132 67.2923 101.248 66.3036ZM102.02 65.4593C102.17 65.2187 101.972 65.0218 101.579 65.0218C101.186 65.0218 100.987 65.2187 101.137 65.4593C101.287 65.6999 101.486 65.8968 101.579 65.8968C101.671 65.8968 101.87 65.6999 102.02 65.4593ZM101.689 62.9218C99.7558 62.7556 99.5969 62.34 101.146 61.5175C102.316 60.8963 102.17 60.4369 100.696 60.0825C100.21 59.9688 100.758 59.8507 101.91 59.8244C104.293 59.7632 104.541 60.1919 102.793 61.3469L101.579 62.1519L102.903 62.3925C104.669 62.7162 103.781 63.1012 101.689 62.9218ZM100.33 58.6038C99.8485 58.1269 99.9941 55.8345 100.506 55.8345C100.762 55.8345 100.859 56.202 100.714 56.6482C100.338 57.8295 101.49 58.6563 102.656 58.0351C103.667 57.5013 103.821 56.9195 103.075 56.4601C102.806 56.2939 102.409 56.4295 102.197 56.762C101.914 57.2082 101.813 57.112 101.808 56.3814C101.799 55.6464 102.055 55.397 102.806 55.397C103.578 55.397 103.839 55.6683 103.909 56.5564C103.962 57.1907 103.786 57.9782 103.512 58.3063C103 58.9188 100.846 59.12 100.33 58.6038ZM14.8434 57.147C14.3579 56.8363 14.6934 56.7226 16.0882 56.7182C17.6684 56.7095 17.973 56.5782 17.8538 55.9439C17.7567 55.4408 17.2182 55.1301 16.2736 55.0426C15.4879 54.9639 14.8434 54.6926 14.8434 54.4389C14.8434 54.1502 15.4305 54.0627 16.3839 54.2158C17.5448 54.4039 18.0304 54.2858 18.357 53.7258C18.7101 53.1264 18.7896 53.2358 18.7984 54.3033C18.8116 56.8582 18.3879 57.5845 16.8871 57.5757C16.1279 57.5757 15.2054 57.3788 14.8434 57.147ZM100.122 54.4345C99.8308 54.1458 99.5924 53.4939 99.5924 52.9908C99.5924 52.4877 99.8308 51.8358 100.122 51.5471C101.296 50.3834 103.565 51.2277 103.565 52.8289C103.565 54.5002 101.27 55.572 100.122 54.4345ZM102.665 53.4458C103.375 52.6015 102.881 51.8971 101.579 51.8971C100.387 51.8971 99.8396 52.514 100.202 53.4502C100.519 54.2683 101.98 54.2683 102.665 53.4458ZM15.8366 52.4527C15.1039 52.199 15.1304 50.379 15.8763 49.7665C16.715 49.0797 17.1431 49.679 16.3619 50.4534C16.0087 50.8034 15.8543 51.3109 16.0176 51.5734C16.2118 51.884 16.5517 51.7133 16.9578 51.1009C17.3109 50.5759 17.9862 50.1471 18.4585 50.1471C19.1295 50.1471 19.2839 50.4009 19.178 51.3152C19.0986 51.9583 18.741 52.5839 18.3747 52.7021C17.8008 52.8858 17.7964 52.8158 18.3349 52.1683C18.7719 51.6433 18.8161 51.2846 18.4894 50.9609C18.1584 50.6327 17.9377 50.7552 17.739 51.3765C17.4345 52.3346 16.6973 52.7502 15.8366 52.4527ZM100.365 49.8934C101.314 49.4778 101.799 48.9659 101.799 48.3709C101.799 47.8766 101.998 47.5922 102.241 47.7409C102.484 47.8897 102.682 48.4672 102.682 49.0272C102.682 50.064 101.663 50.6065 99.8131 50.5409C99.1643 50.519 99.3055 50.3484 100.365 49.8934ZM17.1608 48.8215C15.7748 48.2703 15.9205 47.7278 17.6022 47.1897C18.9485 46.7566 18.975 46.7085 18.0436 46.4153C17.4963 46.2491 17.0505 45.9122 17.0505 45.676C17.0505 45.4354 17.3683 45.361 17.7523 45.5097C18.1407 45.6541 18.9352 45.8947 19.5179 46.0391C20.7141 46.3366 20.9215 47.006 19.9196 47.3166C17.6154 48.0297 17.6508 47.9903 18.8161 48.6334C19.7827 49.1672 19.8092 49.2415 19.0368 49.2284C18.5512 49.224 17.7081 49.0403 17.1608 48.8215ZM99.7028 46.7303C98.6699 46.656 97.8268 46.4503 97.8268 46.2666C97.8268 45.8554 100.188 43.5848 100.616 43.5848C100.793 43.5848 100.815 44.0573 100.665 44.6348C100.475 45.3872 100.63 45.816 101.208 46.1354C102.303 46.7435 101.923 46.8922 99.7028 46.7303ZM100.034 45.7722C100.034 45.5316 99.8352 45.3347 99.5924 45.3347C99.3497 45.3347 99.151 45.5316 99.151 45.7722C99.151 46.0129 99.3497 46.2097 99.5924 46.2097C99.8352 46.2097 100.034 46.0129 100.034 45.7722ZM18.8734 45.0591C18.0568 44.7048 17.4963 44.3066 17.6331 44.1754C17.9862 43.8254 21.0231 44.8929 21.0231 45.3697C21.0231 45.8904 20.6832 45.8422 18.8734 45.0591ZM51.7843 86.1788C51.6166 86.0125 51.4797 82.9545 51.4797 79.3846C51.4797 75.819 51.3297 72.9053 51.1487 72.9141C50.9677 72.9228 48.337 74.3841 45.3001 76.1559C42.2633 77.9233 39.6502 79.2927 39.4913 79.1964C38.8821 78.8246 31.9875 66.7586 32.1375 66.3211C32.2214 66.0674 34.755 64.4399 37.7654 62.7031C40.7802 60.9663 43.305 59.3475 43.38 59.1113C43.4506 58.8751 40.9302 57.1995 37.7786 55.397C33.9561 53.2096 32.0802 51.8927 32.1596 51.4509C32.3229 50.5452 39.2662 38.7855 39.6414 38.7768C39.8091 38.7768 42.4575 40.2511 45.5341 42.0536C48.6106 43.856 51.2016 45.3347 51.2943 45.3347C51.3826 45.3347 51.5106 42.3336 51.5768 38.663L51.7004 31.9913H59.4249H67.1495L67.2731 38.663C67.3393 42.3336 67.4673 45.3347 67.5556 45.3347C67.6482 45.3347 70.2393 43.856 73.3158 42.0536C76.3924 40.2511 79.0408 38.7768 79.2085 38.7811C79.5749 38.7986 86.3637 50.309 86.6285 51.3677C86.7742 51.9365 85.4632 52.8902 81.0801 55.397C77.9196 57.1995 75.3993 58.8751 75.4699 59.1113C75.5449 59.3475 78.0697 60.9663 81.0845 62.7031C84.0949 64.4399 86.6285 66.063 86.7124 66.3168C86.8536 66.7411 79.9369 78.8421 79.341 79.2096C79.1909 79.3014 76.5866 77.9233 73.5498 76.1559C70.5129 74.3841 67.8866 72.9228 67.7145 72.9141C67.5379 72.9053 67.3393 75.8978 67.2731 79.5683L67.1495 86.24L59.6192 86.3582C55.4788 86.4238 51.952 86.345 51.7843 86.1788ZM62.0734 79.2664C62.0734 78.9208 61.8747 78.514 61.632 78.3652C61.3892 78.2165 61.1906 76.9828 61.1906 75.6265C61.1906 73.4347 61.3539 72.9928 62.6163 71.7023C63.7419 70.5473 63.9405 70.0967 63.5741 69.5192C62.8237 68.338 62.0734 68.3467 62.0734 69.5367C62.0734 70.311 61.4289 71.1641 59.8663 72.4591C58.6525 73.4653 57.6593 74.4759 57.6593 74.7034C57.6593 74.9309 58.5421 76.029 59.6236 77.149C60.705 78.2646 61.4863 79.3408 61.3627 79.5377C61.2391 79.7346 61.3495 79.8964 61.6055 79.8964C61.8615 79.8964 62.0734 79.6121 62.0734 79.2664ZM61.4113 70.5998C61.5172 70.2979 61.6937 68.3817 61.8041 66.3343C62.0027 62.6418 62.016 62.6068 63.5697 61.5831C65.7414 60.1481 66.0283 58.9932 64.5275 57.7113C63.8699 57.1557 63.1504 56.8101 62.9253 56.9457C62.6869 57.0945 62.5148 55.6464 62.5148 53.4546V49.7096H61.1906C59.8752 49.7096 59.8663 49.7228 59.8663 52.199V54.6839L58.5466 53.4327C55.6907 50.7202 56.4014 49.2722 60.5814 49.2722C62.1307 49.2722 63.3931 49.1234 63.3843 48.944C63.3622 48.4103 62.3603 47.2772 61.4113 46.7172C60.6211 46.2535 60.6609 46.2272 61.7776 46.4766C62.9429 46.7391 63.018 46.6778 62.8811 45.501C62.7575 44.4335 62.5148 44.2191 61.3009 44.1054C59.9017 43.9698 59.6456 44.241 59.8355 45.6629C59.8752 45.9822 59.4161 46.2097 58.7364 46.2097C55.1257 46.2097 52.5965 49.5084 53.8765 52.549C54.4195 53.8308 58.1405 57.1032 59.0939 57.1382C59.2749 57.1426 59.4603 56.6045 59.5044 55.9439C59.5441 55.2833 59.6942 56.1189 59.8355 57.8032C60.0297 60.1919 60.2327 60.8438 60.7492 60.7606C61.1111 60.7038 60.9213 60.9969 60.3254 61.4169C56.4234 64.1556 55.8408 65.7086 58.1934 67.113C59.6545 67.988 60.2106 67.568 59.447 66.1549C58.807 64.9693 59.0409 64.3699 60.4446 63.6568C61.2391 63.2499 61.3141 63.2674 60.8595 63.7443C60.1753 64.4618 60.087 71.1466 60.7624 71.1466C61.014 71.1466 61.3053 70.9016 61.4113 70.5998ZM85.5735 27.7652C84.7834 26.9821 86.6462 24.5452 87.4981 25.2452C88.2573 25.8708 88.297 27.0433 87.5863 27.7477C86.9198 28.4083 86.2312 28.417 85.5735 27.7652ZM78.8466 21.4916C78.8466 21.1284 79.0452 20.8353 79.288 20.8353C79.5308 20.8353 79.7294 21.1284 79.7294 21.4916C79.7294 21.8547 79.5308 22.1478 79.288 22.1478C79.0452 22.1478 78.8466 21.8547 78.8466 21.4916ZM69.1358 17.7991C69.1358 17.5717 69.3344 17.2654 69.5772 17.1167C69.8199 16.9679 70.0186 17.1517 70.0186 17.5279C70.0186 17.9041 69.8199 18.2104 69.5772 18.2104C69.3344 18.2104 69.1358 18.0266 69.1358 17.7991ZM51.0383 16.2723C51.0383 15.8698 51.4135 15.5855 51.9564 15.5855C53.0335 15.5855 52.8834 16.6092 51.7755 16.8192C51.3385 16.9023 51.0383 16.6792 51.0383 16.2723ZM64.2804 16.9548C64.2804 15.4761 64.7394 15.0123 65.8076 15.4192C66.9332 15.8479 66.5183 17.9566 65.2735 18.1316C64.4304 18.2498 64.2804 18.0704 64.2804 16.9548ZM57.7476 17.6854C56.5867 16.5348 57.7344 14.308 59.1998 14.868C60.1003 15.2092 60.0738 17.5979 59.1689 17.9435C58.2773 18.2848 58.3656 18.2979 57.7476 17.6854ZM59.6412 75.9547C59.3146 75.4297 59.7825 73.7716 60.2592 73.7716C60.4446 73.7716 60.5108 74.3622 60.4004 75.084C60.193 76.4971 60.0694 76.6415 59.6412 75.9547ZM62.0027 59.015C62.1837 57.4838 62.2234 57.4445 62.5898 58.4332C62.8679 59.1769 62.8105 59.6669 62.3956 60.0781C61.9056 60.5638 61.8394 60.3888 62.0027 59.015ZM60.5726 48.4672C60.4181 48.2222 60.5064 47.8897 60.7712 47.7278C61.451 47.3122 61.888 47.8809 61.323 48.4409C61.0052 48.7559 60.758 48.7647 60.5726 48.4672Z" fill="white"/>
<path d="M138.664 92V58.4H152.008C154.056 58.4 155.88 58.816 157.48 59.648C159.112 60.448 160.376 61.6 161.272 63.104C162.2 64.576 162.664 66.352 162.664 68.432V69.056C162.664 71.136 162.184 72.928 161.224 74.432C160.296 75.936 159.032 77.088 157.432 77.888C155.832 78.688 154.024 79.088 152.008 79.088H143.848V92H138.664ZM143.848 74.384H151.48C153.304 74.384 154.76 73.904 155.848 72.944C156.936 71.984 157.48 70.672 157.48 69.008V68.528C157.48 66.832 156.936 65.504 155.848 64.544C154.76 63.584 153.304 63.104 151.48 63.104H143.848V74.384ZM174.558 92.672C172.862 92.672 171.342 92.384 169.998 91.808C168.686 91.232 167.63 90.384 166.83 89.264C166.062 88.144 165.678 86.784 165.678 85.184C165.678 83.552 166.062 82.208 166.83 81.152C167.63 80.064 168.702 79.248 170.046 78.704C171.422 78.16 172.974 77.888 174.702 77.888H181.902V76.352C181.902 74.976 181.486 73.872 180.654 73.04C179.822 72.208 178.542 71.792 176.814 71.792C175.118 71.792 173.822 72.192 172.926 72.992C172.03 73.792 171.438 74.832 171.15 76.112L166.542 74.624C166.926 73.344 167.534 72.192 168.366 71.168C169.23 70.112 170.366 69.264 171.774 68.624C173.182 67.984 174.878 67.664 176.862 67.664C179.934 67.664 182.35 68.448 184.11 70.016C185.87 71.584 186.75 73.808 186.75 76.688V86.432C186.75 87.392 187.198 87.872 188.094 87.872H190.11V92H186.414C185.294 92 184.382 91.712 183.678 91.136C182.974 90.56 182.622 89.776 182.622 88.784V88.64H181.902C181.646 89.12 181.262 89.68 180.75 90.32C180.238 90.96 179.486 91.52 178.494 92C177.502 92.448 176.19 92.672 174.558 92.672ZM175.278 88.592C177.262 88.592 178.862 88.032 180.078 86.912C181.294 85.76 181.902 84.192 181.902 82.208V81.728H174.99C173.678 81.728 172.622 82.016 171.822 82.592C171.022 83.136 170.622 83.952 170.622 85.04C170.622 86.128 171.038 86.992 171.87 87.632C172.702 88.272 173.838 88.592 175.278 88.592ZM194.917 92V68.336H199.765V71.12H200.533C200.917 70.128 201.525 69.408 202.357 68.96C203.221 68.48 204.277 68.24 205.525 68.24H208.357V72.704H205.333C203.733 72.704 202.421 73.152 201.397 74.048C200.373 74.912 199.861 76.256 199.861 78.08V92H194.917ZM222.36 92C220.92 92 219.768 91.568 218.904 90.704C218.072 89.84 217.656 88.688 217.656 87.248V72.512H211.128V68.336H217.656V60.512H222.6V68.336H229.656V72.512H222.6V86.384C222.6 87.344 223.048 87.824 223.944 87.824H228.888V92H222.36ZM235.464 92V68.336H240.312V71.888H241.08C241.528 70.928 242.328 70.032 243.48 69.2C244.632 68.368 246.344 67.952 248.616 67.952C250.408 67.952 251.992 68.352 253.368 69.152C254.776 69.952 255.88 71.088 256.68 72.56C257.48 74 257.88 75.744 257.88 77.792V92H252.936V78.176C252.936 76.128 252.424 74.624 251.4 73.664C250.376 72.672 248.968 72.176 247.176 72.176C245.128 72.176 243.48 72.848 242.232 74.192C241.016 75.536 240.408 77.488 240.408 80.048V92H235.464ZM275.844 92.672C273.444 92.672 271.348 92.176 269.556 91.184C267.764 90.16 266.356 88.736 265.332 86.912C264.34 85.056 263.844 82.912 263.844 80.48V79.904C263.844 77.44 264.34 75.296 265.332 73.472C266.324 71.616 267.7 70.192 269.46 69.2C271.252 68.176 273.316 67.664 275.652 67.664C277.924 67.664 279.908 68.176 281.604 69.2C283.332 70.192 284.676 71.584 285.636 73.376C286.596 75.168 287.076 77.264 287.076 79.664V81.536H268.884C268.948 83.616 269.636 85.28 270.948 86.528C272.292 87.744 273.956 88.352 275.94 88.352C277.796 88.352 279.188 87.936 280.116 87.104C281.076 86.272 281.812 85.312 282.324 84.224L286.404 86.336C285.956 87.232 285.3 88.176 284.436 89.168C283.604 90.16 282.5 90.992 281.124 91.664C279.748 92.336 277.988 92.672 275.844 92.672ZM268.932 77.744H282.036C281.908 75.952 281.268 74.56 280.116 73.568C278.964 72.544 277.46 72.032 275.604 72.032C273.748 72.032 272.228 72.544 271.044 73.568C269.892 74.56 269.188 75.952 268.932 77.744ZM293.027 92V68.336H297.875V71.12H298.643C299.027 70.128 299.635 69.408 300.467 68.96C301.331 68.48 302.387 68.24 303.635 68.24H306.467V72.704H303.443C301.843 72.704 300.531 73.152 299.507 74.048C298.483 74.912 297.971 76.256 297.971 78.08V92H293.027Z" fill="#787878"/>
<path d="M137.496 44V21.6H140.952V44H137.496ZM145.621 44V21.6H152.277L158.357 41.696H158.869V21.6H162.293V44H155.637L149.557 23.872H149.045V44H145.621ZM166.965 44V21.6H181.077V24.736H170.421V31.168H180.181V34.304H170.421V40.864H181.237V44H166.965ZM184.84 44V21.6H191.336L196.232 41.696H196.744L201.64 21.6H208.136V44H204.776V24.032H204.264L199.4 44H193.576L188.712 24.032H188.2V44H184.84ZM211.145 44L217.545 21.6H223.625L229.993 44H226.441L224.969 38.72H216.201L214.729 44H211.145ZM217.065 35.52H224.105L220.841 23.744H220.329L217.065 35.52Z" fill="#787878"/>
</svg>
